<svg width="23.000000" height="18.000000" viewBox="0 0 23 18" fill="none" xmlns="http://www.w3.org/2000/svg" xmlns:xlink="http://www.w3.org/1999/xlink">
	<desc>
			Created with Pixso.
	</desc>
	<defs/>
	<path id="Vector" d="M14.99 0.27L22.3 7.58C22.54 7.82 22.68 8.15 22.68 8.5C22.68 8.84 22.54 9.17 22.3 9.41L14.99 16.72C14.75 16.95 14.42 17.08 14.08 17.08C13.74 17.07 13.42 16.94 13.18 16.7C12.94 16.46 12.81 16.14 12.8 15.8C12.8 15.46 12.93 15.13 13.17 14.89L18.27 9.79L1.16 9.79C0.82 9.79 0.49 9.65 0.25 9.41C0.01 9.17 -0.13 8.84 -0.13 8.5C-0.13 8.15 0.01 7.82 0.25 7.58C0.49 7.34 0.82 7.2 1.16 7.2L18.27 7.2L13.17 2.1C13.04 1.98 12.94 1.84 12.88 1.68C12.81 1.52 12.77 1.35 12.77 1.18C12.77 1.01 12.8 0.84 12.87 0.68C12.93 0.52 13.03 0.38 13.15 0.26C13.27 0.14 13.41 0.04 13.57 -0.02C13.73 -0.09 13.9 -0.12 14.07 -0.12C14.25 -0.12 14.41 -0.08 14.57 -0.01C14.73 0.05 14.87 0.15 14.99 0.27Z" fill="#FF7300" fill-opacity="1.000000" fill-rule="nonzero"/>
</svg>
