<svg width="26.000000" height="26.000000" viewBox="0 0 26 26" fill="none" xmlns="http://www.w3.org/2000/svg" xmlns:xlink="http://www.w3.org/1999/xlink">
	<desc>
			Created with Pixso.
	</desc>
	<defs>
		<filter id="filter_960_4624_dd" x="0.000000" y="0.000000" width="26.000000" height="26.000000" filterUnits="userSpaceOnUse" color-interpolation-filters="sRGB">
			<feFlood flood-opacity="0" result="BackgroundImageFix"/>
			<feColorMatrix in="SourceAlpha" type="matrix" values="0 0 0 0 0 0 0 0 0 0 0 0 0 0 0 0 0 0 127 0" result="hardAlpha"/>
			<feOffset dx="1" dy="1"/>
			<feGaussianBlur stdDeviation="0.666667"/>
			<feComposite in2="hardAlpha" operator="out" k2="-1" k3="1"/>
			<feColorMatrix type="matrix" values="0 0 0 0 0 0 0 0 0 0 0 0 0 0 0 0 0 0 0.35 0"/>
			<feBlend mode="normal" in2="BackgroundImageFix" result="effect_dropShadow_1"/>
			<feColorMatrix in="SourceAlpha" type="matrix" values="0 0 0 0 0 0 0 0 0 0 0 0 0 0 0 0 0 0 127 0" result="hardAlpha"/>
			<feOffset dx="-1" dy="-1"/>
			<feGaussianBlur stdDeviation="1.33333"/>
			<feComposite in2="hardAlpha" operator="out" k2="-1" k3="1"/>
			<feColorMatrix type="matrix" values="0 0 0 0 1 0 0 0 0 1 0 0 0 0 1 0 0 0 1 0"/>
			<feBlend mode="normal" in2="effect_dropShadow_1" result="effect_dropShadow_2"/>
			<feBlend mode="normal" in="SourceGraphic" in2="effect_dropShadow_2" result="shape"/>
		</filter>
	</defs>
	<g filter="url(#filter_960_4624_dd)">
		<path id="Vector" d="M14 23C15.18 23 16.35 22.76 17.44 22.31C18.53 21.86 19.52 21.19 20.36 20.36C21.19 19.52 21.86 18.53 22.31 17.44C22.76 16.35 23 15.18 23 14C23 12.81 22.76 11.64 22.31 10.55C21.86 9.46 21.19 8.47 20.36 7.63C19.52 6.8 18.53 6.13 17.44 5.68C16.35 5.23 15.18 5 14 5C11.61 5 9.32 5.94 7.63 7.63C5.94 9.32 5 11.61 5 14C5 16.38 5.94 18.67 7.63 20.36C9.32 22.05 11.61 23 14 23ZM13.76 17.64L18.76 11.64L17.23 10.36L12.93 15.51L10.7 13.29L9.29 14.7L12.29 17.7L13.06 18.48L13.76 17.64Z" fill="#FF7300" fill-opacity="1.000000" fill-rule="evenodd"/>
	</g>
</svg>
