<svg width="22.000000" height="22.000000" viewBox="0 0 22 22" fill="none" xmlns="http://www.w3.org/2000/svg" xmlns:xlink="http://www.w3.org/1999/xlink">
	<desc>
			Created with Pixso.
	</desc>
	<defs/>
	<path id="Vector" d="M2.68 -0.54C2.38 -0.83 1.98 -0.99 1.57 -0.99C1.16 -0.98 0.77 -0.82 0.47 -0.53C0.18 -0.23 0.02 0.16 0.01 0.57C0.01 0.98 0.17 1.38 0.45 1.68L8.77 10L0.45 18.31C0.31 18.46 0.19 18.63 0.1 18.82C0.02 19.01 -0.02 19.22 -0.02 19.43C-0.03 19.64 0.01 19.84 0.09 20.04C0.17 20.23 0.29 20.41 0.44 20.55C0.58 20.7 0.76 20.82 0.95 20.9C1.15 20.98 1.35 21.02 1.56 21.01C1.77 21.01 1.98 20.97 2.17 20.89C2.36 20.8 2.53 20.68 2.68 20.53L11 12.22L19.31 20.53C19.61 20.82 20.01 20.98 20.42 20.98C20.83 20.97 21.22 20.81 21.52 20.52C21.81 20.22 21.97 19.83 21.98 19.42C21.98 19.01 21.82 18.61 21.53 18.31L13.22 10L21.53 1.68C21.82 1.38 21.98 0.98 21.98 0.57C21.97 0.16 21.81 -0.23 21.52 -0.53C21.22 -0.82 20.83 -0.98 20.42 -0.99C20.01 -0.99 19.61 -0.83 19.31 -0.54L11 7.77L2.68 -0.54Z" fill="#000000" fill-opacity="1.000000" fill-rule="evenodd"/>
</svg>
