<svg width="15.000000" height="17.000000" viewBox="0 0 15 17" fill="none" xmlns="http://www.w3.org/2000/svg" xmlns:xlink="http://www.w3.org/1999/xlink">
	<desc>
			Created with Pixso.
	</desc>
	<defs/>
	<path id="Vector" d="M8.89 -0.34C9.25 -0.34 9.59 -0.23 9.87 -0.02C10.15 0.18 10.37 0.47 10.48 0.8L10.93 2.16L13.66 2.16C13.88 2.16 14.09 2.25 14.25 2.41C14.41 2.56 14.5 2.77 14.5 3C14.5 3.22 14.41 3.43 14.25 3.58C14.09 3.74 13.88 3.83 13.66 3.83L13.66 3.89L12.94 14.01C12.89 14.64 12.61 15.23 12.15 15.66C11.68 16.09 11.08 16.33 10.44 16.33L3.55 16.33C2.91 16.33 2.31 16.09 1.84 15.66C1.38 15.23 1.1 14.64 1.05 14.01L0.33 3.89C0.33 3.87 0.33 3.85 0.33 3.83C0.11 3.83 -0.1 3.74 -0.26 3.58C-0.42 3.43 -0.5 3.22 -0.5 3C-0.5 2.77 -0.42 2.56 -0.26 2.41C-0.1 2.25 0.11 2.16 0.33 2.16L3.06 2.16L3.51 0.8C3.62 0.47 3.84 0.18 4.12 -0.02C4.4 -0.23 4.75 -0.34 5.1 -0.34L8.89 -0.34ZM4.5 6.33C4.29 6.33 4.09 6.4 3.94 6.54C3.79 6.67 3.69 6.86 3.67 7.06L3.66 7.16L3.66 12.16C3.66 12.37 3.74 12.58 3.89 12.73C4.04 12.89 4.23 12.98 4.45 12.99C4.66 13 4.87 12.94 5.03 12.8C5.19 12.66 5.3 12.47 5.32 12.26L5.33 12.16L5.33 7.16C5.33 6.94 5.24 6.73 5.08 6.57C4.93 6.41 4.72 6.33 4.5 6.33ZM9.5 6.33C9.27 6.33 9.06 6.41 8.91 6.57C8.75 6.73 8.66 6.94 8.66 7.16L8.66 12.16C8.66 12.38 8.75 12.59 8.91 12.75C9.06 12.91 9.27 13 9.5 13C9.72 13 9.93 12.91 10.08 12.75C10.24 12.59 10.33 12.38 10.33 12.16L10.33 7.16C10.33 6.94 10.24 6.73 10.08 6.57C9.93 6.41 9.72 6.33 9.5 6.33ZM8.89 1.33L5.1 1.33L4.82 2.16L9.17 2.16L8.89 1.33Z" fill="#888888" fill-opacity="1.000000" fill-rule="evenodd"/>
</svg>
