<svg width="17.000000" height="16.000000" viewBox="0 0 17 16" fill="none" xmlns="http://www.w3.org/2000/svg" xmlns:xlink="http://www.w3.org/1999/xlink">
	<desc>
			Created with Pixso.
	</desc>
	<defs/>
	<path id="Vector" d="M16.64 5.17C16.64 4.63 16.39 4.15 15.89 3.73L8.32 -0.68L0.74 3.73C0.24 4.15 0 4.63 0 5.17L0 13.5C0 13.96 0.16 14.36 0.48 14.69C0.81 15.01 1.19 15.17 1.64 15.17L15 15.17C15.44 15.17 15.82 15.01 16.15 14.69C16.47 14.36 16.64 13.96 16.64 13.5L16.64 5.17ZM8.32 9.32L1.4 4.98L8.32 1L15.23 4.98L8.32 9.32Z" fill="#FF7300" fill-opacity="1.000000" fill-rule="nonzero"/>
</svg>
