<svg width="22" height="25" viewBox="0 0 22 25" fill="none" xmlns="http://www.w3.org/2000/svg">
<g clip-path="url(#clip0_960_5281)">
<path d="M19.0067 19.894V10.8539H17.1234C17.3094 11.4398 17.4024 12.049 17.4024 12.6814C17.4024 13.8533 17.1048 14.9345 16.5095 15.925C15.9143 16.9155 15.1051 17.6991 14.0821 18.2757C13.059 18.8524 11.9429 19.1407 10.7339 19.1407C8.90163 19.1407 7.33448 18.5106 6.0324 17.2503C4.73032 15.9901 4.07928 14.4671 4.07928 12.6814C4.07928 12.049 4.17228 11.4398 4.35829 10.8539H2.39122V19.894C2.39122 20.1359 2.4726 20.3381 2.63536 20.5009C2.79812 20.6637 3.00041 20.745 3.24222 20.745H18.1557C18.3882 20.745 18.5882 20.6637 18.7556 20.5009C18.923 20.3381 19.0067 20.1359 19.0067 19.894ZM13.7821 15.4088C13.7821 15.4088 13.9925 15.2054 14.4134 14.7985C14.8343 14.3916 15.0447 13.6115 15.0447 12.4582C15.0447 11.3049 14.6238 10.3214 13.7821 9.5076C12.9404 8.6938 11.9243 8.2869 10.7339 8.2869C9.55268 8.2869 8.54124 8.6938 7.69953 9.5076C6.85783 10.3214 6.43698 11.3049 6.43698 12.4582C6.43698 13.6115 6.85783 14.595 7.69953 15.4088C8.54124 16.2226 9.55268 16.6295 10.7339 16.6295C11.9243 16.6295 12.9404 16.2226 13.7821 15.4088ZM19.0067 7.4359V5.134C19.0067 4.87358 18.9137 4.64804 18.7277 4.45738C18.5417 4.26672 18.3138 4.17139 18.0441 4.17139H15.6167C15.3469 4.17139 15.1191 4.26672 14.9331 4.45738C14.7471 4.64804 14.6541 4.87358 14.6541 5.134V7.4359C14.6541 7.70561 14.7471 7.93348 14.9331 8.11949C15.1191 8.3055 15.3469 8.39851 15.6167 8.39851H18.0441C18.3138 8.39851 18.5417 8.3055 18.7277 8.11949C18.9137 7.93348 19.0067 7.70561 19.0067 7.4359ZM21.4342 4.53411V20.466C21.4342 21.2194 21.1645 21.8658 20.625 22.4052C20.0856 22.9446 19.4392 23.2144 18.6859 23.2144H2.75394C2.00059 23.2144 1.3542 22.9446 0.814767 22.4052C0.275332 21.8658 0.00561523 21.2194 0.00561523 20.466V4.53411C0.00561523 3.78076 0.275332 3.13437 0.814767 2.59494C1.3542 2.0555 2.00059 1.78578 2.75394 1.78578H18.6859C19.4392 1.78578 20.0856 2.0555 20.625 2.59494C21.1645 3.13437 21.4342 3.78076 21.4342 4.53411Z" fill="#FF7300"/>
</g>
<defs>
<clipPath id="clip0_960_5281">
<rect width="21.44" height="25" fill="white" transform="matrix(1 0 0 -1 0 25)"/>
</clipPath>
</defs>
</svg>
