<svg width="12.000000" height="16.000000" viewBox="0 0 12 16" fill="none" xmlns="http://www.w3.org/2000/svg" xmlns:xlink="http://www.w3.org/1999/xlink">
	<desc>
			Created with Pixso.
	</desc>
	<defs/>
	<path id="Vector" d="M9.94 0.87C9.94 0.87 9.65 0.59 9.09 0.02C8.52 -0.54 7.43 -0.83 5.82 -0.83C4.2 -0.83 2.83 -0.26 1.69 0.87C0.56 2.01 0 3.38 0 5C0 5.8 0.19 6.73 0.58 7.77C0.97 8.81 1.45 9.79 2.03 10.7C2.6 11.61 3.17 12.46 3.75 13.24C4.32 14.02 4.81 14.65 5.21 15.13C5.61 15.61 5.82 15.84 5.82 15.82C5.97 15.66 6.18 15.42 6.44 15.11C6.7 14.8 7.17 14.19 7.85 13.28C8.52 12.36 9.12 11.49 9.62 10.66C10.13 9.83 10.59 8.88 11.01 7.81C11.43 6.74 11.64 5.8 11.64 5C11.64 3.38 11.07 2.01 9.94 0.87ZM7.28 6.46C7.28 6.46 7.18 6.56 6.98 6.76C6.78 6.96 6.39 7.07 5.82 7.07C5.24 7.07 4.75 6.86 4.35 6.46C3.95 6.06 3.75 5.57 3.75 5C3.75 4.42 3.95 3.93 4.35 3.53C4.75 3.13 5.24 2.92 5.82 2.92C6.39 2.92 6.88 3.13 7.28 3.53C7.68 3.93 7.89 4.42 7.89 5C7.89 5.57 7.68 6.06 7.28 6.46Z" fill="#FF7300" fill-opacity="1.000000" fill-rule="nonzero"/>
</svg>
