<svg width="15.000000" height="15.000000" viewBox="0 0 15 15" fill="none" xmlns="http://www.w3.org/2000/svg" xmlns:xlink="http://www.w3.org/1999/xlink">
	<desc>
			Created with Pixso.
	</desc>
	<defs/>
	<path id="Vector" d="M3 6.48C4.15 8.82 5.98 10.66 8.51 11.99L10.35 10.15C10.63 9.86 10.91 9.81 11.17 10C12.08 10.33 13.08 10.5 14.17 10.5C14.41 10.5 14.6 10.58 14.76 10.74C14.92 10.89 15 11.09 15 11.32L15 14.17C15 14.41 14.92 14.6 14.76 14.76C14.6 14.92 14.41 15 14.17 15C11.6 15 9.22 14.36 7.05 13.1C4.87 11.84 3.15 10.12 1.89 7.94C0.63 5.77 0 3.39 0 0.82C0 0.58 0.07 0.39 0.23 0.23C0.39 0.07 0.58 0 0.82 0L3.75 0C4.01 0 4.21 0.07 4.35 0.23C4.49 0.39 4.57 0.58 4.57 0.82C4.57 1.83 4.73 2.83 5.07 3.82C5.15 4.08 5.1 4.36 4.92 4.64L3 6.48Z" fill="#FF7300" fill-opacity="1.000000" fill-rule="nonzero"/>
</svg>

