<svg width="24" height="25" viewBox="0 0 24 25" fill="none" xmlns="http://www.w3.org/2000/svg">
<path d="M21.9895 5.69186C21.3664 6.60332 20.613 7.37992 19.7295 8.02166C19.7388 8.15187 19.7434 8.34718 19.7434 8.6076C19.7434 9.81667 19.5667 11.0234 19.2133 12.2279C18.8599 13.4323 18.3228 14.5879 17.602 15.6946C16.8812 16.8014 16.0232 17.7803 15.028 18.6313C14.0329 19.4823 12.8331 20.1613 11.4287 20.6681C10.0243 21.175 8.52227 21.4285 6.92257 21.4285C4.40211 21.4285 2.09556 20.7542 0.00292969 19.4056C0.328451 19.4428 0.691174 19.4614 1.0911 19.4614C3.18373 19.4614 5.0485 18.8196 6.68541 17.5362C5.70884 17.5176 4.83459 17.2176 4.06264 16.6363C3.29069 16.055 2.76056 15.3133 2.47224 14.4112C2.77916 14.4577 3.06283 14.4809 3.32324 14.4809C3.72317 14.4809 4.11844 14.4298 4.50907 14.3275C3.4674 14.1135 2.60477 13.595 1.92118 12.7719C1.23758 11.9488 0.895787 10.9932 0.895787 9.90503V9.84923C1.52823 10.2026 2.20717 10.3933 2.93262 10.4212C2.31878 10.012 1.8305 9.4772 1.46777 8.81686C1.10505 8.15652 0.923689 7.44037 0.923689 6.66842C0.923689 5.84997 1.1283 5.09197 1.53753 4.39443C2.6629 5.78021 4.03241 6.88931 5.64607 7.72171C7.25972 8.55412 8.9873 9.01682 10.8288 9.10983C10.7544 8.7564 10.7172 8.41228 10.7172 8.07746C10.7172 6.83118 11.1567 5.76859 12.0356 4.88968C12.9145 4.01078 13.9771 3.57132 15.2234 3.57132C16.5254 3.57132 17.6229 4.04565 18.5158 4.99431C19.5295 4.799 20.4828 4.43628 21.3757 3.90615C21.0316 4.97571 20.3712 5.80347 19.3947 6.3894C20.2596 6.2964 21.1246 6.06388 21.9895 5.69186Z" fill="#FF7300"/>
</svg>
