<svg width="171" height="190" viewBox="0 0 171 190" fill="none" xmlns="http://www.w3.org/2000/svg">
<g clip-path="url(#clip0_1052_6932)">
<g filter="url(#filter0_ii_1052_6932)">
<path d="M-9.31425 0H18.2607C19.8362 0 21.3905 0.389731 22.7796 1.13107L25.0158 2.32568C26.5108 3.12632 27.7686 4.30823 28.658 5.75277L29.5855 7.25663C30.513 8.76896 31.0085 10.5058 31.0085 12.2808V39.7102C31.0085 41.3031 30.6104 42.8747 29.8523 44.2726L29.4711 44.9759C27.9295 47.8268 25.0496 49.7035 21.8182 49.9619C19.0315 50.1864 16.2871 49.1824 14.3009 47.2168L-16.1667 17.0126C-17.9793 15.2122 -19 12.7637 -19 10.2093V9.67974C-19 6.96009 -17.8438 4.3633 -15.8194 2.54596L-15.7135 2.44853C-13.9517 0.87266 -11.6732 0 -9.31425 0Z" fill="#E3EDF7"/>
</g>
</g>
<g clip-path="url(#clip1_1052_6932)">
<g filter="url(#filter1_ii_1052_6932)">
<path d="M60.6858 0H88.2607C89.8362 0 91.3905 0.389731 92.7796 1.13107L95.0158 2.32568C96.5108 3.12632 97.7686 4.30823 98.658 5.75277L99.5855 7.25663C100.513 8.76896 101.008 10.5058 101.008 12.2808V39.7102C101.008 41.3031 100.61 42.8747 99.8523 44.2726L99.4711 44.9759C97.9295 47.8268 95.0496 49.7035 91.8182 49.9619C89.0315 50.1864 86.2871 49.1824 84.3009 47.2168L53.8333 17.0126C52.0207 15.2122 51 12.7637 51 10.2093V9.67974C51 6.96009 52.1562 4.3633 54.1806 2.54596L54.2865 2.44853C56.0483 0.87266 58.3268 0 60.6858 0Z" fill="#E3EDF7"/>
</g>
</g>
<g clip-path="url(#clip2_1052_6932)">
<g filter="url(#filter2_ii_1052_6932)">
<path d="M130.686 0H158.261C159.836 0 161.39 0.389731 162.78 1.13107L165.016 2.32568C166.511 3.12632 167.769 4.30823 168.658 5.75277L169.585 7.25663C170.513 8.76896 171.008 10.5058 171.008 12.2808V39.7102C171.008 41.3031 170.61 42.8747 169.852 44.2726L169.471 44.9759C167.93 47.8268 165.05 49.7035 161.818 49.9619C159.032 50.1864 156.287 49.1824 154.301 47.2168L123.833 17.0126C122.021 15.2122 121 12.7637 121 10.2093V9.67974C121 6.96009 122.156 4.3633 124.181 2.54596L124.286 2.44853C126.048 0.87266 128.327 0 130.686 0Z" fill="#E3EDF7"/>
</g>
</g>
<g clip-path="url(#clip3_1052_6932)">
<g filter="url(#filter3_ii_1052_6932)">
<path d="M-9.31425 70H18.2607C19.8362 70 21.3905 70.3897 22.7796 71.1311L25.0158 72.3257C26.5108 73.1263 27.7686 74.3082 28.658 75.7528L29.5855 77.2566C30.513 78.769 31.0085 80.5058 31.0085 82.2808V109.71C31.0085 111.303 30.6104 112.875 29.8523 114.273L29.4711 114.976C27.9295 117.827 25.0496 119.703 21.8182 119.962C19.0315 120.186 16.2871 119.182 14.3009 117.217L-16.1667 87.0126C-17.9793 85.2122 -19 82.7637 -19 80.2093V79.6797C-19 76.9601 -17.8438 74.3633 -15.8194 72.546L-15.7135 72.4485C-13.9517 70.8727 -11.6732 70 -9.31425 70Z" fill="#E3EDF7"/>
</g>
</g>
<g clip-path="url(#clip4_1052_6932)">
<g filter="url(#filter4_ii_1052_6932)">
<path d="M60.6858 70H88.2607C89.8362 70 91.3905 70.3897 92.7796 71.1311L95.0158 72.3257C96.5108 73.1263 97.7686 74.3082 98.658 75.7528L99.5855 77.2566C100.513 78.769 101.008 80.5058 101.008 82.2808V109.71C101.008 111.303 100.61 112.875 99.8523 114.273L99.4711 114.976C97.9295 117.827 95.0496 119.703 91.8182 119.962C89.0315 120.186 86.2871 119.182 84.3009 117.217L53.8333 87.0126C52.0207 85.2122 51 82.7637 51 80.2093V79.6797C51 76.9601 52.1562 74.3633 54.1806 72.546L54.2865 72.4485C56.0483 70.8727 58.3268 70 60.6858 70Z" fill="#E3EDF7"/>
</g>
</g>
<g clip-path="url(#clip5_1052_6932)">
<g filter="url(#filter5_ii_1052_6932)">
<path d="M130.686 70H158.261C159.836 70 161.39 70.3897 162.78 71.1311L165.016 72.3257C166.511 73.1263 167.769 74.3082 168.658 75.7528L169.585 77.2566C170.513 78.769 171.008 80.5058 171.008 82.2808V109.71C171.008 111.303 170.61 112.875 169.852 114.273L169.471 114.976C167.93 117.827 165.05 119.703 161.818 119.962C159.032 120.186 156.287 119.182 154.301 117.217L123.833 87.0126C122.021 85.2122 121 82.7637 121 80.2093V79.6797C121 76.9601 122.156 74.3633 124.181 72.546L124.286 72.4485C126.048 70.8727 128.327 70 130.686 70Z" fill="#E3EDF7"/>
</g>
</g>
<g clip-path="url(#clip6_1052_6932)">
<g filter="url(#filter6_ii_1052_6932)">
<path d="M-9.31425 140H18.2607C19.8362 140 21.3905 140.39 22.7796 141.131L25.0158 142.326C26.5108 143.126 27.7686 144.308 28.658 145.753L29.5855 147.257C30.513 148.769 31.0085 150.506 31.0085 152.281V179.71C31.0085 181.303 30.6104 182.875 29.8523 184.273L29.4711 184.976C27.9295 187.827 25.0496 189.703 21.8182 189.962C19.0315 190.186 16.2871 189.182 14.3009 187.217L-16.1667 157.013C-17.9793 155.212 -19 152.764 -19 150.209V149.68C-19 146.96 -17.8438 144.363 -15.8194 142.546L-15.7135 142.449C-13.9517 140.873 -11.6732 140 -9.31425 140Z" fill="#E3EDF7"/>
</g>
</g>
<g clip-path="url(#clip7_1052_6932)">
<g filter="url(#filter7_ii_1052_6932)">
<path d="M60.6858 140H88.2607C89.8362 140 91.3905 140.39 92.7796 141.131L95.0158 142.326C96.5108 143.126 97.7686 144.308 98.658 145.753L99.5855 147.257C100.513 148.769 101.008 150.506 101.008 152.281V179.71C101.008 181.303 100.61 182.875 99.8523 184.273L99.4711 184.976C97.9295 187.827 95.0496 189.703 91.8182 189.962C89.0315 190.186 86.2871 189.182 84.3009 187.217L53.8333 157.013C52.0207 155.212 51 152.764 51 150.209V149.68C51 146.96 52.1562 144.363 54.1806 142.546L54.2865 142.449C56.0483 140.873 58.3268 140 60.6858 140Z" fill="#E3EDF7"/>
</g>
</g>
<defs>
<filter id="filter0_ii_1052_6932" x="-22" y="-3" width="56.0084" height="55.9922" filterUnits="userSpaceOnUse" color-interpolation-filters="sRGB">
<feFlood flood-opacity="0" result="BackgroundImageFix"/>
<feBlend mode="normal" in="SourceGraphic" in2="BackgroundImageFix" result="shape"/>
<feColorMatrix in="SourceAlpha" type="matrix" values="0 0 0 0 0 0 0 0 0 0 0 0 0 0 0 0 0 0 127 0" result="hardAlpha"/>
<feOffset dx="3" dy="3"/>
<feGaussianBlur stdDeviation="3.5"/>
<feComposite in2="hardAlpha" operator="arithmetic" k2="-1" k3="1"/>
<feColorMatrix type="matrix" values="0 0 0 0 0.534167 0 0 0 0 0.645967 0 0 0 0 0.749167 0 0 0 0.48 0"/>
<feBlend mode="normal" in2="shape" result="effect1_innerShadow_1052_6932"/>
<feColorMatrix in="SourceAlpha" type="matrix" values="0 0 0 0 0 0 0 0 0 0 0 0 0 0 0 0 0 0 127 0" result="hardAlpha"/>
<feOffset dx="-3" dy="-3"/>
<feGaussianBlur stdDeviation="3.5"/>
<feComposite in2="hardAlpha" operator="arithmetic" k2="-1" k3="1"/>
<feColorMatrix type="matrix" values="0 0 0 0 1 0 0 0 0 1 0 0 0 0 1 0 0 0 1 0"/>
<feBlend mode="normal" in2="effect1_innerShadow_1052_6932" result="effect2_innerShadow_1052_6932"/>
</filter>
<filter id="filter1_ii_1052_6932" x="48" y="-3" width="56.0085" height="55.9922" filterUnits="userSpaceOnUse" color-interpolation-filters="sRGB">
<feFlood flood-opacity="0" result="BackgroundImageFix"/>
<feBlend mode="normal" in="SourceGraphic" in2="BackgroundImageFix" result="shape"/>
<feColorMatrix in="SourceAlpha" type="matrix" values="0 0 0 0 0 0 0 0 0 0 0 0 0 0 0 0 0 0 127 0" result="hardAlpha"/>
<feOffset dx="3" dy="3"/>
<feGaussianBlur stdDeviation="3.5"/>
<feComposite in2="hardAlpha" operator="arithmetic" k2="-1" k3="1"/>
<feColorMatrix type="matrix" values="0 0 0 0 0.534167 0 0 0 0 0.645967 0 0 0 0 0.749167 0 0 0 0.48 0"/>
<feBlend mode="normal" in2="shape" result="effect1_innerShadow_1052_6932"/>
<feColorMatrix in="SourceAlpha" type="matrix" values="0 0 0 0 0 0 0 0 0 0 0 0 0 0 0 0 0 0 127 0" result="hardAlpha"/>
<feOffset dx="-3" dy="-3"/>
<feGaussianBlur stdDeviation="3.5"/>
<feComposite in2="hardAlpha" operator="arithmetic" k2="-1" k3="1"/>
<feColorMatrix type="matrix" values="0 0 0 0 1 0 0 0 0 1 0 0 0 0 1 0 0 0 1 0"/>
<feBlend mode="normal" in2="effect1_innerShadow_1052_6932" result="effect2_innerShadow_1052_6932"/>
</filter>
<filter id="filter2_ii_1052_6932" x="118" y="-3" width="56.0085" height="55.9922" filterUnits="userSpaceOnUse" color-interpolation-filters="sRGB">
<feFlood flood-opacity="0" result="BackgroundImageFix"/>
<feBlend mode="normal" in="SourceGraphic" in2="BackgroundImageFix" result="shape"/>
<feColorMatrix in="SourceAlpha" type="matrix" values="0 0 0 0 0 0 0 0 0 0 0 0 0 0 0 0 0 0 127 0" result="hardAlpha"/>
<feOffset dx="3" dy="3"/>
<feGaussianBlur stdDeviation="3.5"/>
<feComposite in2="hardAlpha" operator="arithmetic" k2="-1" k3="1"/>
<feColorMatrix type="matrix" values="0 0 0 0 0.534167 0 0 0 0 0.645967 0 0 0 0 0.749167 0 0 0 0.48 0"/>
<feBlend mode="normal" in2="shape" result="effect1_innerShadow_1052_6932"/>
<feColorMatrix in="SourceAlpha" type="matrix" values="0 0 0 0 0 0 0 0 0 0 0 0 0 0 0 0 0 0 127 0" result="hardAlpha"/>
<feOffset dx="-3" dy="-3"/>
<feGaussianBlur stdDeviation="3.5"/>
<feComposite in2="hardAlpha" operator="arithmetic" k2="-1" k3="1"/>
<feColorMatrix type="matrix" values="0 0 0 0 1 0 0 0 0 1 0 0 0 0 1 0 0 0 1 0"/>
<feBlend mode="normal" in2="effect1_innerShadow_1052_6932" result="effect2_innerShadow_1052_6932"/>
</filter>
<filter id="filter3_ii_1052_6932" x="-22" y="67" width="56.0084" height="55.9922" filterUnits="userSpaceOnUse" color-interpolation-filters="sRGB">
<feFlood flood-opacity="0" result="BackgroundImageFix"/>
<feBlend mode="normal" in="SourceGraphic" in2="BackgroundImageFix" result="shape"/>
<feColorMatrix in="SourceAlpha" type="matrix" values="0 0 0 0 0 0 0 0 0 0 0 0 0 0 0 0 0 0 127 0" result="hardAlpha"/>
<feOffset dx="3" dy="3"/>
<feGaussianBlur stdDeviation="3.5"/>
<feComposite in2="hardAlpha" operator="arithmetic" k2="-1" k3="1"/>
<feColorMatrix type="matrix" values="0 0 0 0 0.534167 0 0 0 0 0.645967 0 0 0 0 0.749167 0 0 0 0.48 0"/>
<feBlend mode="normal" in2="shape" result="effect1_innerShadow_1052_6932"/>
<feColorMatrix in="SourceAlpha" type="matrix" values="0 0 0 0 0 0 0 0 0 0 0 0 0 0 0 0 0 0 127 0" result="hardAlpha"/>
<feOffset dx="-3" dy="-3"/>
<feGaussianBlur stdDeviation="3.5"/>
<feComposite in2="hardAlpha" operator="arithmetic" k2="-1" k3="1"/>
<feColorMatrix type="matrix" values="0 0 0 0 1 0 0 0 0 1 0 0 0 0 1 0 0 0 1 0"/>
<feBlend mode="normal" in2="effect1_innerShadow_1052_6932" result="effect2_innerShadow_1052_6932"/>
</filter>
<filter id="filter4_ii_1052_6932" x="48" y="67" width="56.0085" height="55.9922" filterUnits="userSpaceOnUse" color-interpolation-filters="sRGB">
<feFlood flood-opacity="0" result="BackgroundImageFix"/>
<feBlend mode="normal" in="SourceGraphic" in2="BackgroundImageFix" result="shape"/>
<feColorMatrix in="SourceAlpha" type="matrix" values="0 0 0 0 0 0 0 0 0 0 0 0 0 0 0 0 0 0 127 0" result="hardAlpha"/>
<feOffset dx="3" dy="3"/>
<feGaussianBlur stdDeviation="3.5"/>
<feComposite in2="hardAlpha" operator="arithmetic" k2="-1" k3="1"/>
<feColorMatrix type="matrix" values="0 0 0 0 0.534167 0 0 0 0 0.645967 0 0 0 0 0.749167 0 0 0 0.48 0"/>
<feBlend mode="normal" in2="shape" result="effect1_innerShadow_1052_6932"/>
<feColorMatrix in="SourceAlpha" type="matrix" values="0 0 0 0 0 0 0 0 0 0 0 0 0 0 0 0 0 0 127 0" result="hardAlpha"/>
<feOffset dx="-3" dy="-3"/>
<feGaussianBlur stdDeviation="3.5"/>
<feComposite in2="hardAlpha" operator="arithmetic" k2="-1" k3="1"/>
<feColorMatrix type="matrix" values="0 0 0 0 1 0 0 0 0 1 0 0 0 0 1 0 0 0 1 0"/>
<feBlend mode="normal" in2="effect1_innerShadow_1052_6932" result="effect2_innerShadow_1052_6932"/>
</filter>
<filter id="filter5_ii_1052_6932" x="118" y="67" width="56.0085" height="55.9922" filterUnits="userSpaceOnUse" color-interpolation-filters="sRGB">
<feFlood flood-opacity="0" result="BackgroundImageFix"/>
<feBlend mode="normal" in="SourceGraphic" in2="BackgroundImageFix" result="shape"/>
<feColorMatrix in="SourceAlpha" type="matrix" values="0 0 0 0 0 0 0 0 0 0 0 0 0 0 0 0 0 0 127 0" result="hardAlpha"/>
<feOffset dx="3" dy="3"/>
<feGaussianBlur stdDeviation="3.5"/>
<feComposite in2="hardAlpha" operator="arithmetic" k2="-1" k3="1"/>
<feColorMatrix type="matrix" values="0 0 0 0 0.534167 0 0 0 0 0.645967 0 0 0 0 0.749167 0 0 0 0.48 0"/>
<feBlend mode="normal" in2="shape" result="effect1_innerShadow_1052_6932"/>
<feColorMatrix in="SourceAlpha" type="matrix" values="0 0 0 0 0 0 0 0 0 0 0 0 0 0 0 0 0 0 127 0" result="hardAlpha"/>
<feOffset dx="-3" dy="-3"/>
<feGaussianBlur stdDeviation="3.5"/>
<feComposite in2="hardAlpha" operator="arithmetic" k2="-1" k3="1"/>
<feColorMatrix type="matrix" values="0 0 0 0 1 0 0 0 0 1 0 0 0 0 1 0 0 0 1 0"/>
<feBlend mode="normal" in2="effect1_innerShadow_1052_6932" result="effect2_innerShadow_1052_6932"/>
</filter>
<filter id="filter6_ii_1052_6932" x="-22" y="137" width="56.0084" height="55.9922" filterUnits="userSpaceOnUse" color-interpolation-filters="sRGB">
<feFlood flood-opacity="0" result="BackgroundImageFix"/>
<feBlend mode="normal" in="SourceGraphic" in2="BackgroundImageFix" result="shape"/>
<feColorMatrix in="SourceAlpha" type="matrix" values="0 0 0 0 0 0 0 0 0 0 0 0 0 0 0 0 0 0 127 0" result="hardAlpha"/>
<feOffset dx="3" dy="3"/>
<feGaussianBlur stdDeviation="3.5"/>
<feComposite in2="hardAlpha" operator="arithmetic" k2="-1" k3="1"/>
<feColorMatrix type="matrix" values="0 0 0 0 0.534167 0 0 0 0 0.645967 0 0 0 0 0.749167 0 0 0 0.48 0"/>
<feBlend mode="normal" in2="shape" result="effect1_innerShadow_1052_6932"/>
<feColorMatrix in="SourceAlpha" type="matrix" values="0 0 0 0 0 0 0 0 0 0 0 0 0 0 0 0 0 0 127 0" result="hardAlpha"/>
<feOffset dx="-3" dy="-3"/>
<feGaussianBlur stdDeviation="3.5"/>
<feComposite in2="hardAlpha" operator="arithmetic" k2="-1" k3="1"/>
<feColorMatrix type="matrix" values="0 0 0 0 1 0 0 0 0 1 0 0 0 0 1 0 0 0 1 0"/>
<feBlend mode="normal" in2="effect1_innerShadow_1052_6932" result="effect2_innerShadow_1052_6932"/>
</filter>
<filter id="filter7_ii_1052_6932" x="48" y="137" width="56.0085" height="55.9922" filterUnits="userSpaceOnUse" color-interpolation-filters="sRGB">
<feFlood flood-opacity="0" result="BackgroundImageFix"/>
<feBlend mode="normal" in="SourceGraphic" in2="BackgroundImageFix" result="shape"/>
<feColorMatrix in="SourceAlpha" type="matrix" values="0 0 0 0 0 0 0 0 0 0 0 0 0 0 0 0 0 0 127 0" result="hardAlpha"/>
<feOffset dx="3" dy="3"/>
<feGaussianBlur stdDeviation="3.5"/>
<feComposite in2="hardAlpha" operator="arithmetic" k2="-1" k3="1"/>
<feColorMatrix type="matrix" values="0 0 0 0 0.534167 0 0 0 0 0.645967 0 0 0 0 0.749167 0 0 0 0.48 0"/>
<feBlend mode="normal" in2="shape" result="effect1_innerShadow_1052_6932"/>
<feColorMatrix in="SourceAlpha" type="matrix" values="0 0 0 0 0 0 0 0 0 0 0 0 0 0 0 0 0 0 127 0" result="hardAlpha"/>
<feOffset dx="-3" dy="-3"/>
<feGaussianBlur stdDeviation="3.5"/>
<feComposite in2="hardAlpha" operator="arithmetic" k2="-1" k3="1"/>
<feColorMatrix type="matrix" values="0 0 0 0 1 0 0 0 0 1 0 0 0 0 1 0 0 0 1 0"/>
<feBlend mode="normal" in2="effect1_innerShadow_1052_6932" result="effect2_innerShadow_1052_6932"/>
</filter>
<clipPath id="clip0_1052_6932">
<rect width="50" height="50" fill="white" transform="translate(-19)"/>
</clipPath>
<clipPath id="clip1_1052_6932">
<rect width="50" height="50" fill="white" transform="translate(51)"/>
</clipPath>
<clipPath id="clip2_1052_6932">
<rect width="50" height="50" fill="white" transform="translate(121)"/>
</clipPath>
<clipPath id="clip3_1052_6932">
<rect width="50" height="50" fill="white" transform="translate(-19 70)"/>
</clipPath>
<clipPath id="clip4_1052_6932">
<rect width="50" height="50" fill="white" transform="translate(51 70)"/>
</clipPath>
<clipPath id="clip5_1052_6932">
<rect width="50" height="50" fill="white" transform="translate(121 70)"/>
</clipPath>
<clipPath id="clip6_1052_6932">
<rect width="50" height="50" fill="white" transform="translate(-19 140)"/>
</clipPath>
<clipPath id="clip7_1052_6932">
<rect width="50" height="50" fill="white" transform="translate(51 140)"/>
</clipPath>
</defs>
</svg>
