<svg width="397" height="99" viewBox="0 0 397 99" fill="none" xmlns="http://www.w3.org/2000/svg">
<g clip-path="url(#clip0_1052_6931)">
<path d="M221.28 70.4946L217.476 67.7776C216.837 68.4756 216.118 69.1102 215.312 69.5947C214.288 70.2062 213.126 70.437 211.946 70.437C210.087 70.437 208.505 69.7505 207.273 68.343C206.013 66.9066 205.478 65.1645 205.478 63.2666C205.478 61.3688 206.024 59.644 207.273 58.2076C208.499 56.7943 210.081 56.0963 211.946 56.0963C214.127 56.0963 215.899 57.0539 217.321 58.5941L221.021 55.7213C218.742 52.8889 215.738 51.5391 212.015 51.5391C208.729 51.5391 205.875 52.5832 203.533 54.9195C201.225 57.2211 200.143 60.0131 200.143 63.2666C200.143 66.5201 201.173 69.3582 203.498 71.6657C205.783 73.9327 208.539 74.9999 211.744 74.9999C213.747 74.9999 215.836 74.6826 217.603 73.6731C219.036 72.854 220.25 71.7695 221.28 70.4946ZM233.917 74.5154H239.045V56.3328H246.232V52.0121H226.73V56.3328H233.917V74.5154ZM290.843 70.5062C288.886 70.5062 287.206 69.8082 285.888 68.3545C284.588 66.9181 283.966 65.1991 283.966 63.2666C283.966 61.3341 284.559 59.6036 285.854 58.1614C287.16 56.7077 288.835 56.0271 290.78 56.0271C292.725 56.0271 294.422 56.7251 295.752 58.173C297.064 59.6036 297.697 61.3226 297.697 63.2609C297.697 65.1991 297.104 66.9239 295.809 68.366C294.497 69.8313 292.799 70.5004 290.849 70.5004L290.843 70.5062ZM299.469 71.5734C301.8 69.289 302.957 66.5316 302.957 63.2666C302.957 60.0016 301.834 57.2269 299.504 54.9368C297.11 52.5774 294.186 51.5333 290.843 51.5333C287.499 51.5333 284.565 52.589 282.148 54.9541C279.817 57.2385 278.66 59.9958 278.66 63.2609C278.66 66.5259 279.782 69.3006 282.113 71.5907C284.507 73.95 287.43 74.9941 290.774 74.9941C294.117 74.9941 297.058 73.9385 299.469 71.5734ZM310.035 74.5154H315.099V59.8978L326.453 74.5154H331.149V52.0179H326.085V66.1567L315.105 52.0179H310.035V74.5154ZM339.148 74.5154H344.316V52.0179H339.148V74.5154ZM372.629 70.4946L368.825 67.7776C368.186 68.4756 367.467 69.1102 366.661 69.5947C365.637 70.2062 364.474 70.437 363.295 70.437C361.436 70.437 359.853 69.7505 358.622 68.343C357.361 66.9066 356.826 65.1645 356.826 63.2666C356.826 61.3688 357.373 59.644 358.622 58.2076C359.848 56.7943 361.43 56.0963 363.295 56.0963C365.476 56.0963 367.248 57.0539 368.67 58.5941L372.37 55.7213C370.091 52.8889 367.087 51.5391 363.364 51.5391C360.078 51.5391 357.223 52.5832 354.881 54.9195C352.574 57.2211 351.492 60.0131 351.492 63.2666C351.492 66.5201 352.522 69.3582 354.847 71.6657C357.131 73.9327 359.888 74.9999 363.093 74.9999C365.096 74.9999 367.185 74.6826 368.946 73.6731C370.379 72.854 371.593 71.7695 372.623 70.4946H372.629ZM131.138 46.4974H136.266V28.3206H143.453V23.9999H123.951V28.3206H131.138V46.5031V46.4974ZM170.483 23.9999H165.252V36.76C165.252 38.2714 164.941 39.8577 163.86 40.9884C162.853 42.044 161.517 42.4536 160.079 42.4536C158.64 42.4536 157.288 42.0152 156.286 40.9249C155.21 39.7539 154.905 38.1272 154.905 36.5869V23.9999H149.674V36.7254C149.674 39.5058 150.25 42.4305 152.344 44.4091C154.416 46.3647 157.242 46.9473 160.004 46.9473C162.766 46.9473 165.649 46.3531 167.756 44.3861C169.902 42.3844 170.478 39.3732 170.478 36.5523V23.9999H170.483ZM178.039 46.4974H183.172V39.2232H187.241L192.063 46.4974H197.893L192.466 38.5483L193.318 38.1848C196.293 36.9215 197.784 34.7583 197.784 31.5048C197.784 29.5551 197.277 27.7437 195.885 26.3477C194.008 24.4672 191.166 23.9941 188.616 23.9941H178.045V28.2456H188.277C189.364 28.2456 190.504 28.4475 191.384 29.1224C192.259 29.7916 192.622 30.7607 192.622 31.8509C192.622 32.9412 192.248 33.8873 191.402 34.5795C190.533 35.2948 189.41 35.5198 188.306 35.5198H178.039V46.4916V46.4974ZM202.888 46.4974H208.217C210.283 41.2941 212.262 36.0562 214.323 30.853L215.03 29.0705L215.727 30.853C217.764 36.062 219.697 41.3114 221.792 46.4974H227.265L217.775 23.9999H212.378L202.888 46.4974ZM233.67 46.4974H238.734V31.8798L250.088 46.4974H254.784V23.9999H249.72V38.1387L238.74 23.9999H233.67V46.4974ZM393.599 57.6999L396.073 54.1984C393.484 52.3409 390.457 51.6026 387.257 51.6026C385.007 51.6026 382.74 52.0698 380.985 53.5639C379.454 54.8676 378.734 56.5174 378.734 58.5306C378.734 59.4824 378.878 60.4573 379.304 61.3111C379.696 62.0956 380.288 62.6898 381.031 63.1513C381.859 63.6647 382.734 64.0973 383.655 64.4146C384.8 64.8184 386.003 65.1299 387.188 65.4068C388.201 65.6433 389.732 66.0009 390.624 66.5432C391.326 66.9701 391.809 67.5988 391.809 68.441C391.809 70.4197 389.956 70.91 388.316 70.91C385.473 70.91 382.924 69.9639 380.662 68.3141L377.912 71.608C380.823 73.9673 384.305 74.9191 388.08 74.9191C390.405 74.9191 392.799 74.4692 394.663 72.9924C396.315 71.683 397.011 69.9409 397.011 67.8584C397.011 66.1394 396.505 64.628 395.107 63.5724C393.369 62.2629 390.768 61.513 388.673 61.0457C387.631 60.815 386.083 60.4631 385.157 59.9324C384.414 59.5055 383.937 58.8479 383.937 57.9711C383.937 57.2327 384.271 56.6212 384.863 56.1943C385.496 55.7329 386.319 55.6059 387.085 55.6059C389.456 55.6059 391.637 56.4309 393.599 57.6884V57.6999ZM252.77 74.5154H257.897V67.2412H261.966L266.788 74.5154H272.618L267.191 66.5662L268.037 66.2028C271.012 64.9395 272.503 62.7763 272.503 59.5228C272.503 57.573 271.996 55.7617 270.604 54.3657C268.728 52.4794 265.885 52.0121 263.335 52.0121H252.764V56.2636H262.996C264.084 56.2636 265.223 56.4655 266.103 57.1404C266.978 57.8095 267.341 58.7844 267.341 59.8689C267.341 60.9534 266.967 61.9052 266.121 62.5975C265.252 63.3128 264.13 63.5377 263.025 63.5377H252.758V74.5096L252.77 74.5154ZM127.369 64.3453C127.323 63.9877 127.3 63.63 127.3 63.2666C127.3 61.3341 127.893 59.6036 129.188 58.1614C130.494 56.7077 132.168 56.0271 134.108 56.0271C135.5 56.0271 136.807 56.3847 137.952 57.1808L138.85 57.8095L127.524 65.5683L127.369 64.3453ZM145.214 58.2307C144.627 56.9962 143.816 55.9059 142.838 54.9426C140.444 52.5832 137.52 51.5391 134.177 51.5391C130.833 51.5391 127.898 52.5947 125.481 54.9599C123.151 57.2442 121.994 60.0016 121.994 63.2666C121.994 66.5316 123.116 69.3063 125.447 71.5964C127.841 73.9558 130.764 74.9999 134.108 74.9999C137.451 74.9999 140.392 73.9443 142.803 71.5791C143.333 71.06 143.822 70.5004 144.248 69.8947V66.797H140.219C139.932 67.3681 139.563 67.893 139.137 68.3718C137.825 69.837 136.128 70.512 134.183 70.512C132.905 70.512 131.685 70.212 130.603 69.5255L129.631 68.9083L145.22 58.2307H145.214ZM177.354 64.3453C177.308 63.9877 177.285 63.63 177.285 63.2666C177.285 61.3341 177.878 59.6036 179.173 58.1614C180.479 56.7077 182.154 56.0271 184.099 56.0271C185.492 56.0271 186.798 56.3847 187.943 57.1808L188.841 57.8095L177.516 65.5683L177.36 64.3453H177.354ZM195.2 58.2307C194.613 56.9962 193.801 55.9059 192.823 54.9426C190.429 52.5832 187.506 51.5391 184.162 51.5391C180.819 51.5391 177.884 52.5947 175.467 54.9599C173.136 57.2442 171.979 60.0016 171.979 63.2666C171.979 66.5316 173.102 69.3063 175.432 71.5964C177.826 73.9558 180.75 74.9999 184.093 74.9999C187.437 74.9999 190.377 73.9443 192.789 71.5791C193.318 71.06 193.807 70.5004 194.233 69.8947V66.797H190.205C189.917 67.3681 189.549 67.893 189.123 68.3718C187.811 69.837 186.113 70.512 184.162 70.512C182.885 70.512 181.665 70.212 180.583 69.5255L179.61 68.9083L195.2 58.2307ZM151.349 74.5154H168.078V70.1947H156.476V52.0121H151.343V74.5096L151.349 74.5154Z" fill="black"/>
</g>
<g clip-path="url(#clip1_1052_6931)">
<g filter="url(#filter0_dd_1052_6931)">
<path fill-rule="evenodd" clip-rule="evenodd" d="M3.28174 48.1294V15.6621C3.28174 8.84939 8.84987 3.28125 15.6626 3.28125H80.6025C87.4098 3.28125 92.9834 8.84939 92.9834 15.6621V80.6021C92.9834 87.4093 87.4153 92.9829 80.6025 92.9829H48.1353C23.4656 92.9775 3.28174 72.7937 3.28174 48.1294Z" fill="#FF7300"/>
</g>
<g filter="url(#filter1_ii_1052_6931)">
<path fill-rule="evenodd" clip-rule="evenodd" d="M46.0142 24.6133H50.8502C51.7174 24.6133 52.5048 24.9698 53.0793 25.5391C53.6486 26.1084 54.005 26.9012 54.005 27.7632V33.2169C54.005 34.0842 53.6486 34.8717 53.0793 35.4463C52.5101 36.0156 51.7174 36.3721 50.8502 36.3721H45.397C44.5299 36.3721 43.7425 36.0156 43.1679 35.4463C42.5986 34.877 42.2422 34.0842 42.2422 33.2169V27.7632C42.2422 26.8959 42.5986 26.1084 43.1679 25.5391C43.7425 24.9644 44.5299 24.6133 45.397 24.6133H46.0089H46.0142ZM63.6505 24.6133H68.4918C69.359 24.6133 70.1464 24.9698 70.7209 25.5391C71.2902 26.1084 71.6466 26.9012 71.6466 27.7632V33.2169C71.6466 34.0842 71.2902 34.8717 70.7209 35.4463C70.1464 36.0156 69.359 36.3721 68.4918 36.3721H63.0386C62.1715 36.3721 61.3841 36.0156 60.8095 35.4463C60.2402 34.877 59.8838 34.0842 59.8838 33.2169V27.7632C59.8838 26.8959 60.2402 26.1084 60.8095 25.5391C61.3788 24.9644 62.1715 24.6133 63.0386 24.6133H63.6505ZM54.005 63.045V69.4778C54.005 71.2869 51.5631 72.5319 49.9085 70.8772L46.4664 67.4346L43.0243 63.9921C41.3697 62.3374 42.6146 59.8951 44.4235 59.8951H50.8555C51.7227 59.8951 52.5101 60.2516 53.0847 60.821C53.6539 61.3903 54.0104 62.1831 54.0104 63.0503L54.005 63.045ZM54.005 45.4068V51.8395C54.005 53.6486 51.5631 54.8936 49.9085 53.2389L46.4664 49.7964L43.0243 46.3538C41.3697 44.6991 42.6146 42.2569 44.4235 42.2569H50.8555C51.7227 42.2569 52.5101 42.6134 53.0847 43.1827C53.6539 43.752 54.0104 44.5448 54.0104 45.4068H54.005ZM71.6413 63.045V69.4778C71.6413 71.2869 69.1994 72.5319 67.5448 70.8772L64.1027 67.4346L60.6605 63.9921C59.006 62.3374 60.2509 59.8951 62.0597 59.8951H68.4918C69.359 59.8951 70.1464 60.2516 70.7209 60.821C71.2902 61.3903 71.6466 62.1831 71.6466 63.0503L71.6413 63.045ZM36.3688 27.7632V34.1959C36.3688 36.005 33.9268 37.2501 32.2722 35.5953L28.8301 32.1528L25.388 28.7103C23.7334 27.0555 24.9783 24.6133 26.7872 24.6133H33.2192C34.0864 24.6133 34.8738 24.9698 35.4484 25.5391C36.0176 26.1084 36.3741 26.9012 36.3741 27.7685L36.3688 27.7632ZM63.6558 42.2516H68.4971C69.3643 42.2516 70.1517 42.608 70.7262 43.1774C71.2955 43.7467 71.652 44.5395 71.652 45.4068V50.8605C71.652 51.7278 71.2955 52.5153 70.7262 53.0846C70.1517 53.6539 69.3643 54.0104 68.4971 54.0104H63.044C62.1768 54.0104 61.3894 53.6539 60.8148 53.0846C60.2456 52.5153 59.8891 51.7225 59.8891 50.8605V45.4068C59.8891 44.5395 60.2456 43.752 60.8148 43.1774C61.3841 42.6027 62.1768 42.2516 63.044 42.2516H63.6558ZM31.8573 62.8322H28.6386C27.7342 62.8322 27.1117 64.056 27.9416 64.8807L29.6654 66.6046L31.3891 68.3285C32.2137 69.1532 33.4374 68.5307 33.4374 67.6262V64.4125C33.4374 63.9815 33.2618 63.5824 32.9745 63.3004C32.6872 63.0131 32.2935 62.8375 31.8626 62.8375L31.8573 62.8322ZM36.3741 45.4068V51.8395C36.3741 53.6486 33.9321 54.8936 32.2776 53.2389L28.8354 49.7964L25.3933 46.3538C23.7387 44.6991 24.9836 42.2569 26.7925 42.2569H33.2246C34.0917 42.2569 34.8791 42.6134 35.4537 43.1827C36.023 43.752 36.3794 44.5448 36.3794 45.4121L36.3741 45.4068Z" fill="white"/>
</g>
</g>
<defs>
<filter id="filter0_dd_1052_6931" x="-4.71826" y="-4.71875" width="106.702" height="106.701" filterUnits="userSpaceOnUse" color-interpolation-filters="sRGB">
<feFlood flood-opacity="0" result="BackgroundImageFix"/>
<feColorMatrix in="SourceAlpha" type="matrix" values="0 0 0 0 0 0 0 0 0 0 0 0 0 0 0 0 0 0 127 0" result="hardAlpha"/>
<feOffset dx="-4" dy="-4"/>
<feGaussianBlur stdDeviation="2"/>
<feComposite in2="hardAlpha" operator="out"/>
<feColorMatrix type="matrix" values="0 0 0 0 1 0 0 0 0 1 0 0 0 0 1 0 0 0 0.7 0"/>
<feBlend mode="normal" in2="BackgroundImageFix" result="effect1_dropShadow_1052_6931"/>
<feColorMatrix in="SourceAlpha" type="matrix" values="0 0 0 0 0 0 0 0 0 0 0 0 0 0 0 0 0 0 127 0" result="hardAlpha"/>
<feOffset dx="5" dy="5"/>
<feGaussianBlur stdDeviation="2"/>
<feComposite in2="hardAlpha" operator="out"/>
<feColorMatrix type="matrix" values="0 0 0 0 0 0 0 0 0 0 0 0 0 0 0 0 0 0 0.15 0"/>
<feBlend mode="normal" in2="effect1_dropShadow_1052_6931" result="effect2_dropShadow_1052_6931"/>
<feBlend mode="normal" in="SourceGraphic" in2="effect2_dropShadow_1052_6931" result="shape"/>
</filter>
<filter id="filter1_ii_1052_6931" x="24.6133" y="24.6133" width="51.0386" height="51.0391" filterUnits="userSpaceOnUse" color-interpolation-filters="sRGB">
<feFlood flood-opacity="0" result="BackgroundImageFix"/>
<feBlend mode="normal" in="SourceGraphic" in2="BackgroundImageFix" result="shape"/>
<feColorMatrix in="SourceAlpha" type="matrix" values="0 0 0 0 0 0 0 0 0 0 0 0 0 0 0 0 0 0 127 0" result="hardAlpha"/>
<feOffset dy="4"/>
<feGaussianBlur stdDeviation="2"/>
<feComposite in2="hardAlpha" operator="arithmetic" k2="-1" k3="1"/>
<feColorMatrix type="matrix" values="0 0 0 0 0 0 0 0 0 0 0 0 0 0 0 0 0 0 0.25 0"/>
<feBlend mode="normal" in2="shape" result="effect1_innerShadow_1052_6931"/>
<feColorMatrix in="SourceAlpha" type="matrix" values="0 0 0 0 0 0 0 0 0 0 0 0 0 0 0 0 0 0 127 0" result="hardAlpha"/>
<feOffset dx="4" dy="4"/>
<feGaussianBlur stdDeviation="9"/>
<feComposite in2="hardAlpha" operator="arithmetic" k2="-1" k3="1"/>
<feColorMatrix type="matrix" values="0 0 0 0 0 0 0 0 0 0 0 0 0 0 0 0 0 0 0.15 0"/>
<feBlend mode="normal" in2="effect1_innerShadow_1052_6931" result="effect2_innerShadow_1052_6931"/>
</filter>
<clipPath id="clip0_1052_6931">
<rect width="275" height="51" fill="white" transform="translate(122 24)"/>
</clipPath>
<clipPath id="clip1_1052_6931">
<rect width="99" height="99" fill="white"/>
</clipPath>
</defs>
</svg>
